<mxfile host="Electron" modified="2024-10-24T10:10:13.803Z" agent="Mozilla/5.0 (Windows NT 10.0; Win64; x64) AppleWebKit/537.36 (KHTML, like Gecko) draw.io/23.1.5 Chrome/120.0.6099.109 Electron/28.1.0 Safari/537.36" etag="zFeM25D4HEyR-I7Nfu2J" version="23.1.5" type="device">
  <diagram name="Page-1" id="5dwpRDFGkW5c3Zo6oDb6">
    <mxGraphModel dx="2554" dy="826" grid="1" gridSize="10" guides="1" tooltips="1" connect="1" arrows="1" fold="1" page="1" pageScale="1" pageWidth="850" pageHeight="1100" math="0" shadow="0">
      <root>
        <mxCell id="0" />
        <mxCell id="1" parent="0" />
        <mxCell id="MvAAhoDSJqZ7KYV7F_YJ-2" value="" style="rounded=0;whiteSpace=wrap;html=1;" parent="1" vertex="1">
          <mxGeometry x="200" y="120" width="1090" height="1720" as="geometry" />
        </mxCell>
        <mxCell id="MvAAhoDSJqZ7KYV7F_YJ-3" value="User" style="shape=umlActor;verticalLabelPosition=bottom;verticalAlign=top;html=1;" parent="1" vertex="1">
          <mxGeometry x="-80" y="927.5" width="30" height="60" as="geometry" />
        </mxCell>
        <mxCell id="MvAAhoDSJqZ7KYV7F_YJ-4" value="&lt;font style=&quot;font-size: 14px;&quot;&gt;Đăng nhập tài khoản&lt;/font&gt;" style="ellipse;whiteSpace=wrap;html=1;verticalAlign=top;" parent="1" vertex="1">
          <mxGeometry x="260" y="145" width="190" height="45" as="geometry" />
        </mxCell>
        <mxCell id="MvAAhoDSJqZ7KYV7F_YJ-10" value="&lt;font style=&quot;font-size: 14px;&quot;&gt;Quên mật khẩu&lt;/font&gt;" style="ellipse;whiteSpace=wrap;html=1;" parent="1" vertex="1">
          <mxGeometry x="580" y="140" width="140" height="60" as="geometry" />
        </mxCell>
        <mxCell id="MvAAhoDSJqZ7KYV7F_YJ-14" value="&lt;font style=&quot;font-size: 14px;&quot;&gt;Hệ thống bán hàng thương mại điện tử&lt;/font&gt;" style="text;html=1;align=center;verticalAlign=middle;whiteSpace=wrap;rounded=0;" parent="1" vertex="1">
          <mxGeometry x="870" y="120" width="340" height="30" as="geometry" />
        </mxCell>
        <mxCell id="MvAAhoDSJqZ7KYV7F_YJ-18" value="&lt;font style=&quot;font-size: 14px;&quot;&gt;Xem danh sách sản phẩm theo từng trạng thái&lt;/font&gt;" style="ellipse;whiteSpace=wrap;html=1;" parent="1" vertex="1">
          <mxGeometry x="255" y="340" width="190" height="75" as="geometry" />
        </mxCell>
        <mxCell id="MvAAhoDSJqZ7KYV7F_YJ-20" value="&lt;font style=&quot;font-size: 14px;&quot;&gt;Xem danh sách sản phẩm đã giảm giá&lt;/font&gt;" style="ellipse;whiteSpace=wrap;html=1;" parent="1" vertex="1">
          <mxGeometry x="480" y="320" width="180" height="75" as="geometry" />
        </mxCell>
        <mxCell id="MvAAhoDSJqZ7KYV7F_YJ-22" value="&lt;font style=&quot;font-size: 14px;&quot;&gt;Xem danh sách sản phẩm theo từng danh mục&lt;/font&gt;" style="ellipse;whiteSpace=wrap;html=1;" parent="1" vertex="1">
          <mxGeometry x="240" y="670" width="190" height="75" as="geometry" />
        </mxCell>
        <mxCell id="MvAAhoDSJqZ7KYV7F_YJ-24" value="&lt;font style=&quot;font-size: 14px;&quot;&gt;Đăng kí tài khoản&lt;/font&gt;" style="ellipse;whiteSpace=wrap;html=1;" parent="1" vertex="1">
          <mxGeometry x="280" y="220" width="140" height="60" as="geometry" />
        </mxCell>
        <mxCell id="MvAAhoDSJqZ7KYV7F_YJ-26" value="&lt;font style=&quot;font-size: 14px;&quot;&gt;&amp;lt;&amp;lt;extend&amp;gt;&amp;gt;&lt;/font&gt;" style="endArrow=open;endSize=12;dashed=1;html=1;rounded=0;entryX=0.47;entryY=0.979;entryDx=0;entryDy=0;exitX=0.5;exitY=0;exitDx=0;exitDy=0;entryPerimeter=0;" parent="1" source="MvAAhoDSJqZ7KYV7F_YJ-22" target="MvAAhoDSJqZ7KYV7F_YJ-33" edge="1">
          <mxGeometry x="-0.2542" y="-17" width="160" relative="1" as="geometry">
            <mxPoint x="513" y="434" as="sourcePoint" />
            <mxPoint x="320" y="350" as="targetPoint" />
            <mxPoint as="offset" />
          </mxGeometry>
        </mxCell>
        <mxCell id="MvAAhoDSJqZ7KYV7F_YJ-31" value="&lt;font style=&quot;font-size: 14px;&quot;&gt;&amp;lt;&amp;lt;extend&amp;gt;&amp;gt;&lt;/font&gt;" style="endArrow=open;endSize=12;dashed=1;html=1;rounded=0;entryX=0.5;entryY=0;entryDx=0;entryDy=0;exitX=0.5;exitY=1;exitDx=0;exitDy=0;" parent="1" source="MvAAhoDSJqZ7KYV7F_YJ-18" target="MvAAhoDSJqZ7KYV7F_YJ-33" edge="1">
          <mxGeometry x="-0.2542" y="-17" width="160" relative="1" as="geometry">
            <mxPoint x="495" y="400" as="sourcePoint" />
            <mxPoint x="490" y="310" as="targetPoint" />
            <mxPoint as="offset" />
          </mxGeometry>
        </mxCell>
        <mxCell id="MvAAhoDSJqZ7KYV7F_YJ-32" value="&lt;font style=&quot;font-size: 14px;&quot;&gt;&amp;lt;&amp;lt;extends&amp;gt;&amp;gt;&lt;/font&gt;" style="endArrow=open;endSize=12;dashed=1;html=1;rounded=0;" parent="1" source="MvAAhoDSJqZ7KYV7F_YJ-20" target="MvAAhoDSJqZ7KYV7F_YJ-33" edge="1">
          <mxGeometry x="-0.2542" y="-17" width="160" relative="1" as="geometry">
            <mxPoint x="640" y="440" as="sourcePoint" />
            <mxPoint x="490" y="422" as="targetPoint" />
            <mxPoint as="offset" />
          </mxGeometry>
        </mxCell>
        <mxCell id="MvAAhoDSJqZ7KYV7F_YJ-33" value="&lt;font style=&quot;font-size: 14px;&quot;&gt;Xem danh sách sản phẩm&lt;br&gt;(Có thể mở rộng danh sách)&amp;nbsp;&lt;/font&gt;" style="ellipse;whiteSpace=wrap;html=1;" parent="1" vertex="1">
          <mxGeometry x="250" y="515" width="190" height="75" as="geometry" />
        </mxCell>
        <mxCell id="MvAAhoDSJqZ7KYV7F_YJ-34" value="" style="endArrow=none;html=1;rounded=0;entryX=0.054;entryY=0.727;entryDx=0;entryDy=0;exitX=0.5;exitY=0;exitDx=0;exitDy=0;exitPerimeter=0;entryPerimeter=0;" parent="1" source="MvAAhoDSJqZ7KYV7F_YJ-3" target="MvAAhoDSJqZ7KYV7F_YJ-4" edge="1">
          <mxGeometry width="50" height="50" relative="1" as="geometry">
            <mxPoint x="-82.5" y="881" as="sourcePoint" />
            <mxPoint x="230" y="150" as="targetPoint" />
          </mxGeometry>
        </mxCell>
        <mxCell id="MvAAhoDSJqZ7KYV7F_YJ-35" value="" style="endArrow=none;html=1;rounded=0;entryX=0;entryY=0.5;entryDx=0;entryDy=0;exitX=0.5;exitY=0;exitDx=0;exitDy=0;exitPerimeter=0;" parent="1" source="MvAAhoDSJqZ7KYV7F_YJ-3" target="MvAAhoDSJqZ7KYV7F_YJ-24" edge="1">
          <mxGeometry width="50" height="50" relative="1" as="geometry">
            <mxPoint x="-90" y="445" as="sourcePoint" />
            <mxPoint x="260" y="220" as="targetPoint" />
          </mxGeometry>
        </mxCell>
        <mxCell id="MvAAhoDSJqZ7KYV7F_YJ-36" value="" style="endArrow=none;html=1;rounded=0;entryX=0;entryY=0.5;entryDx=0;entryDy=0;" parent="1" source="MvAAhoDSJqZ7KYV7F_YJ-3" target="MvAAhoDSJqZ7KYV7F_YJ-33" edge="1">
          <mxGeometry width="50" height="50" relative="1" as="geometry">
            <mxPoint x="-90" y="445" as="sourcePoint" />
            <mxPoint x="260" y="250" as="targetPoint" />
          </mxGeometry>
        </mxCell>
        <mxCell id="MvAAhoDSJqZ7KYV7F_YJ-39" value="&lt;font style=&quot;font-size: 14px;&quot;&gt;Xác thực email/ sđt&lt;br&gt;(ko làm)&lt;br&gt;&lt;/font&gt;" style="ellipse;whiteSpace=wrap;html=1;" parent="1" vertex="1">
          <mxGeometry x="780" y="240" width="190" height="80" as="geometry" />
        </mxCell>
        <mxCell id="MvAAhoDSJqZ7KYV7F_YJ-40" value="&lt;span style=&quot;font-size: 14px;&quot;&gt;Xem chi tiết cụ thể sản phẩm&lt;/span&gt;" style="ellipse;whiteSpace=wrap;html=1;" parent="1" vertex="1">
          <mxGeometry x="750" y="440" width="180" height="75" as="geometry" />
        </mxCell>
        <mxCell id="MvAAhoDSJqZ7KYV7F_YJ-42" value="&lt;span style=&quot;font-size: 14px;&quot;&gt;Xem danh sách sản phẩm liên quan (cùng danh mục)&lt;/span&gt;" style="ellipse;whiteSpace=wrap;html=1;" parent="1" vertex="1">
          <mxGeometry x="750" y="570" width="240" height="80" as="geometry" />
        </mxCell>
        <mxCell id="MvAAhoDSJqZ7KYV7F_YJ-46" value="&lt;font style=&quot;font-size: 14px;&quot;&gt;Xem thông tin cá nhân&lt;/font&gt;" style="ellipse;whiteSpace=wrap;html=1;" parent="1" vertex="1">
          <mxGeometry x="260" y="790" width="200" height="70" as="geometry" />
        </mxCell>
        <mxCell id="MvAAhoDSJqZ7KYV7F_YJ-48" value="" style="endArrow=none;html=1;rounded=0;entryX=0;entryY=0.5;entryDx=0;entryDy=0;" parent="1" source="MvAAhoDSJqZ7KYV7F_YJ-3" target="MvAAhoDSJqZ7KYV7F_YJ-46" edge="1">
          <mxGeometry width="50" height="50" relative="1" as="geometry">
            <mxPoint x="-30" y="442" as="sourcePoint" />
            <mxPoint x="260" y="488" as="targetPoint" />
          </mxGeometry>
        </mxCell>
        <mxCell id="MvAAhoDSJqZ7KYV7F_YJ-50" value="&lt;span style=&quot;font-size: 14px;&quot;&gt;Cập nhật thông tin cá nhân&lt;/span&gt;" style="ellipse;whiteSpace=wrap;html=1;" parent="1" vertex="1">
          <mxGeometry x="690" y="700" width="180" height="70" as="geometry" />
        </mxCell>
        <mxCell id="MvAAhoDSJqZ7KYV7F_YJ-53" value="&lt;font style=&quot;font-size: 14px;&quot;&gt;Xem thông tin giỏ hàng&lt;/font&gt;" style="ellipse;whiteSpace=wrap;html=1;" parent="1" vertex="1">
          <mxGeometry x="255" y="910" width="200" height="95" as="geometry" />
        </mxCell>
        <mxCell id="MvAAhoDSJqZ7KYV7F_YJ-54" value="" style="endArrow=none;html=1;rounded=0;entryX=0;entryY=0.5;entryDx=0;entryDy=0;" parent="1" source="MvAAhoDSJqZ7KYV7F_YJ-3" target="MvAAhoDSJqZ7KYV7F_YJ-53" edge="1">
          <mxGeometry width="50" height="50" relative="1" as="geometry">
            <mxPoint x="-60" y="530" as="sourcePoint" />
            <mxPoint x="229" y="773" as="targetPoint" />
          </mxGeometry>
        </mxCell>
        <mxCell id="MvAAhoDSJqZ7KYV7F_YJ-55" value="&lt;span style=&quot;font-size: 14px;&quot;&gt;Xóa thông tin sản phẩm trong giỏ&lt;/span&gt;" style="ellipse;whiteSpace=wrap;html=1;" parent="1" vertex="1">
          <mxGeometry x="745" y="870" width="180" height="70" as="geometry" />
        </mxCell>
        <mxCell id="MvAAhoDSJqZ7KYV7F_YJ-57" value="&lt;span style=&quot;font-size: 14px;&quot;&gt;Chỉnh sửa số lượng mua&lt;/span&gt;" style="ellipse;whiteSpace=wrap;html=1;" parent="1" vertex="1">
          <mxGeometry x="735" y="960" width="180" height="70" as="geometry" />
        </mxCell>
        <mxCell id="MvAAhoDSJqZ7KYV7F_YJ-59" value="&lt;font style=&quot;font-size: 14px;&quot;&gt;Nhập thông tin mã giảm giá&lt;/font&gt;" style="ellipse;whiteSpace=wrap;html=1;" parent="1" vertex="1">
          <mxGeometry x="735" y="1050" width="200" height="80" as="geometry" />
        </mxCell>
        <mxCell id="MvAAhoDSJqZ7KYV7F_YJ-64" value="&lt;font style=&quot;font-size: 14px;&quot;&gt;Condition: click vào sản phẩm đó&lt;/font&gt;" style="shape=card;whiteSpace=wrap;html=1;" parent="1" vertex="1">
          <mxGeometry x="500" y="610" width="180" height="60" as="geometry" />
        </mxCell>
        <mxCell id="MvAAhoDSJqZ7KYV7F_YJ-65" value="" style="endArrow=none;dashed=1;html=1;rounded=0;exitX=0;exitY=0;exitDx=105;exitDy=0;exitPerimeter=0;" parent="1" source="MvAAhoDSJqZ7KYV7F_YJ-64" edge="1">
          <mxGeometry width="50" height="50" relative="1" as="geometry">
            <mxPoint x="600" y="550" as="sourcePoint" />
            <mxPoint x="600" y="510" as="targetPoint" />
          </mxGeometry>
        </mxCell>
        <mxCell id="MvAAhoDSJqZ7KYV7F_YJ-70" value="&lt;span style=&quot;font-size: 14px;&quot;&gt;Xem chi tiết hóa đơn hàng&lt;br&gt;(Điều kiện: phải có hàng trong giỏ.)&lt;br&gt;&lt;/span&gt;" style="ellipse;whiteSpace=wrap;html=1;" parent="1" vertex="1">
          <mxGeometry x="290" y="1390" width="260" height="100" as="geometry" />
        </mxCell>
        <mxCell id="MvAAhoDSJqZ7KYV7F_YJ-71" value="" style="endArrow=none;html=1;rounded=0;entryX=0.005;entryY=0.421;entryDx=0;entryDy=0;entryPerimeter=0;" parent="1" source="MvAAhoDSJqZ7KYV7F_YJ-3" target="MvAAhoDSJqZ7KYV7F_YJ-75" edge="1">
          <mxGeometry width="50" height="50" relative="1" as="geometry">
            <mxPoint x="-110" y="687.5" as="sourcePoint" />
            <mxPoint x="152.5" y="1317.5" as="targetPoint" />
          </mxGeometry>
        </mxCell>
        <mxCell id="MvAAhoDSJqZ7KYV7F_YJ-73" value="&lt;span style=&quot;font-size: 14px;&quot;&gt;Điền thông tin hóa đơn&lt;/span&gt;" style="ellipse;whiteSpace=wrap;html=1;" parent="1" vertex="1">
          <mxGeometry x="735" y="1400" width="190" height="65" as="geometry" />
        </mxCell>
        <mxCell id="MvAAhoDSJqZ7KYV7F_YJ-75" value="&lt;span style=&quot;font-size: 14px;&quot;&gt;Xem danh sách đơn hàng đã đặt&lt;br&gt;(Điều kiện: phải đặt và chốt bill)&lt;br&gt;&lt;/span&gt;" style="ellipse;whiteSpace=wrap;html=1;" parent="1" vertex="1">
          <mxGeometry x="280" y="1540" width="260" height="80" as="geometry" />
        </mxCell>
        <mxCell id="MvAAhoDSJqZ7KYV7F_YJ-76" value="&lt;span style=&quot;font-size: 14px;&quot;&gt;Hủy đơn hàng&lt;br&gt;(Có thời gian cụ thể)&lt;br&gt;&lt;/span&gt;" style="ellipse;whiteSpace=wrap;html=1;" parent="1" vertex="1">
          <mxGeometry x="710" y="1547.5" width="190" height="65" as="geometry" />
        </mxCell>
        <mxCell id="MvAAhoDSJqZ7KYV7F_YJ-78" value="" style="endArrow=none;html=1;rounded=0;entryX=0.028;entryY=0.363;entryDx=0;entryDy=0;entryPerimeter=0;" parent="1" source="MvAAhoDSJqZ7KYV7F_YJ-3" target="MvAAhoDSJqZ7KYV7F_YJ-70" edge="1">
          <mxGeometry width="50" height="50" relative="1" as="geometry">
            <mxPoint x="-22" y="620" as="sourcePoint" />
            <mxPoint x="240" y="1250" as="targetPoint" />
          </mxGeometry>
        </mxCell>
        <mxCell id="MvAAhoDSJqZ7KYV7F_YJ-83" value="&lt;span style=&quot;font-size: 14px;&quot;&gt;Gửi tin nhắn cho shop. Chat real time hoặc gửi tin nhắn dạng email.&lt;br&gt;&lt;/span&gt;" style="ellipse;whiteSpace=wrap;html=1;" parent="1" vertex="1">
          <mxGeometry x="250" y="1690" width="260" height="80" as="geometry" />
        </mxCell>
        <mxCell id="MvAAhoDSJqZ7KYV7F_YJ-84" value="" style="endArrow=none;html=1;rounded=0;entryX=0;entryY=0;entryDx=0;entryDy=0;" parent="1" source="MvAAhoDSJqZ7KYV7F_YJ-3" target="MvAAhoDSJqZ7KYV7F_YJ-83" edge="1">
          <mxGeometry width="50" height="50" relative="1" as="geometry">
            <mxPoint x="-140" y="900" as="sourcePoint" />
            <mxPoint x="147" y="1504" as="targetPoint" />
          </mxGeometry>
        </mxCell>
        <mxCell id="MvAAhoDSJqZ7KYV7F_YJ-89" value="&lt;font style=&quot;font-size: 14px;&quot;&gt;Xem thông tin mã giảm giá&lt;/font&gt;" style="ellipse;whiteSpace=wrap;html=1;" parent="1" vertex="1">
          <mxGeometry x="270" y="1130" width="200" height="80" as="geometry" />
        </mxCell>
        <mxCell id="MvAAhoDSJqZ7KYV7F_YJ-91" value="" style="endArrow=none;html=1;rounded=0;entryX=0.348;entryY=-0.02;entryDx=0;entryDy=0;entryPerimeter=0;" parent="1" source="MvAAhoDSJqZ7KYV7F_YJ-3" target="MvAAhoDSJqZ7KYV7F_YJ-89" edge="1">
          <mxGeometry width="50" height="50" relative="1" as="geometry">
            <mxPoint x="30" y="1070" as="sourcePoint" />
            <mxPoint x="335" y="1070" as="targetPoint" />
          </mxGeometry>
        </mxCell>
        <mxCell id="MvAAhoDSJqZ7KYV7F_YJ-95" value="&lt;font style=&quot;font-size: 14px;&quot;&gt;&amp;lt;&amp;lt;include&amp;gt;&amp;gt;&lt;/font&gt;" style="endArrow=open;endSize=12;dashed=1;html=1;rounded=0;entryX=1;entryY=0.5;entryDx=0;entryDy=0;" parent="1" source="MvAAhoDSJqZ7KYV7F_YJ-76" target="MvAAhoDSJqZ7KYV7F_YJ-75" edge="1">
          <mxGeometry x="0.125" y="10" width="160" relative="1" as="geometry">
            <mxPoint x="620" y="1650" as="sourcePoint" />
            <mxPoint x="620" y="1750" as="targetPoint" />
            <mxPoint x="1" as="offset" />
          </mxGeometry>
        </mxCell>
        <mxCell id="MvAAhoDSJqZ7KYV7F_YJ-96" value="&lt;font style=&quot;font-size: 14px;&quot;&gt;&amp;lt;&amp;lt;include&amp;gt;&amp;gt;&lt;/font&gt;" style="endArrow=open;endSize=12;dashed=1;html=1;rounded=0;entryX=1;entryY=0.5;entryDx=0;entryDy=0;exitX=0;exitY=0.5;exitDx=0;exitDy=0;" parent="1" source="MvAAhoDSJqZ7KYV7F_YJ-10" target="MvAAhoDSJqZ7KYV7F_YJ-4" edge="1">
          <mxGeometry width="160" relative="1" as="geometry">
            <mxPoint x="455" y="220" as="sourcePoint" />
            <mxPoint x="585" y="222" as="targetPoint" />
          </mxGeometry>
        </mxCell>
        <mxCell id="MvAAhoDSJqZ7KYV7F_YJ-97" value="&lt;font style=&quot;font-size: 14px;&quot;&gt;&amp;lt;&amp;lt;include&amp;gt;&amp;gt;&lt;/font&gt;" style="endArrow=open;endSize=12;dashed=1;html=1;rounded=0;entryX=0.925;entryY=0.743;entryDx=0;entryDy=0;entryPerimeter=0;" parent="1" source="MvAAhoDSJqZ7KYV7F_YJ-39" target="MvAAhoDSJqZ7KYV7F_YJ-10" edge="1">
          <mxGeometry x="-0.12" y="-14" width="160" relative="1" as="geometry">
            <mxPoint x="900" y="176" as="sourcePoint" />
            <mxPoint x="1066" y="240" as="targetPoint" />
            <mxPoint as="offset" />
          </mxGeometry>
        </mxCell>
        <mxCell id="MvAAhoDSJqZ7KYV7F_YJ-98" value="&lt;font style=&quot;font-size: 14px;&quot;&gt;&amp;lt;&amp;lt;include&amp;gt;&amp;gt;&lt;/font&gt;" style="endArrow=open;endSize=12;dashed=1;html=1;rounded=0;exitX=0;exitY=0.5;exitDx=0;exitDy=0;entryX=1;entryY=0.5;entryDx=0;entryDy=0;" parent="1" source="MvAAhoDSJqZ7KYV7F_YJ-39" target="MvAAhoDSJqZ7KYV7F_YJ-24" edge="1">
          <mxGeometry width="160" relative="1" as="geometry">
            <mxPoint x="445" y="296" as="sourcePoint" />
            <mxPoint x="806" y="320" as="targetPoint" />
          </mxGeometry>
        </mxCell>
        <mxCell id="MvAAhoDSJqZ7KYV7F_YJ-99" value="&lt;font style=&quot;font-size: 14px;&quot;&gt;&amp;lt;&amp;lt;include&amp;gt;&amp;gt;&lt;/font&gt;" style="endArrow=open;endSize=12;dashed=1;html=1;rounded=0;exitX=0;exitY=0.5;exitDx=0;exitDy=0;entryX=1;entryY=0.5;entryDx=0;entryDy=0;" parent="1" source="MvAAhoDSJqZ7KYV7F_YJ-50" target="MvAAhoDSJqZ7KYV7F_YJ-46" edge="1">
          <mxGeometry width="160" relative="1" as="geometry">
            <mxPoint x="425" y="870" as="sourcePoint" />
            <mxPoint x="593" y="840" as="targetPoint" />
          </mxGeometry>
        </mxCell>
        <mxCell id="MvAAhoDSJqZ7KYV7F_YJ-100" value="&lt;font style=&quot;font-size: 14px;&quot;&gt;&amp;lt;&amp;lt;include&amp;gt;&amp;gt;&lt;/font&gt;" style="endArrow=open;endSize=12;dashed=1;html=1;rounded=0;exitX=0.024;exitY=0.685;exitDx=0;exitDy=0;exitPerimeter=0;entryX=0.896;entryY=0.224;entryDx=0;entryDy=0;entryPerimeter=0;" parent="1" source="MvAAhoDSJqZ7KYV7F_YJ-55" target="MvAAhoDSJqZ7KYV7F_YJ-53" edge="1">
          <mxGeometry width="160" relative="1" as="geometry">
            <mxPoint x="360" y="927.5" as="sourcePoint" />
            <mxPoint x="684" y="838.5" as="targetPoint" />
          </mxGeometry>
        </mxCell>
        <mxCell id="MvAAhoDSJqZ7KYV7F_YJ-101" value="&lt;font style=&quot;font-size: 14px;&quot;&gt;&amp;lt;&amp;lt;include&amp;gt;&amp;gt;&lt;/font&gt;" style="endArrow=open;endSize=12;dashed=1;html=1;rounded=0;exitX=0;exitY=0.5;exitDx=0;exitDy=0;entryX=1;entryY=0.5;entryDx=0;entryDy=0;" parent="1" source="MvAAhoDSJqZ7KYV7F_YJ-57" target="MvAAhoDSJqZ7KYV7F_YJ-53" edge="1">
          <mxGeometry width="160" relative="1" as="geometry">
            <mxPoint x="425" y="982" as="sourcePoint" />
            <mxPoint x="710" y="980" as="targetPoint" />
          </mxGeometry>
        </mxCell>
        <mxCell id="MvAAhoDSJqZ7KYV7F_YJ-102" value="&lt;font style=&quot;font-size: 14px;&quot;&gt;&amp;lt;&amp;lt;include&amp;gt;&amp;gt;&lt;/font&gt;" style="endArrow=open;endSize=12;dashed=1;html=1;rounded=0;entryX=1;entryY=1;entryDx=0;entryDy=0;exitX=0.05;exitY=0.337;exitDx=0;exitDy=0;exitPerimeter=0;" parent="1" source="MvAAhoDSJqZ7KYV7F_YJ-59" target="MvAAhoDSJqZ7KYV7F_YJ-53" edge="1">
          <mxGeometry x="0.0811" y="5" width="160" relative="1" as="geometry">
            <mxPoint x="323" y="1045" as="sourcePoint" />
            <mxPoint x="528" y="1120" as="targetPoint" />
            <mxPoint as="offset" />
          </mxGeometry>
        </mxCell>
        <mxCell id="MvAAhoDSJqZ7KYV7F_YJ-103" value="&lt;font style=&quot;font-size: 14px;&quot;&gt;&amp;lt;&amp;lt;include&amp;gt;&amp;gt;&lt;/font&gt;" style="endArrow=open;endSize=12;dashed=1;html=1;rounded=0;" parent="1" source="MvAAhoDSJqZ7KYV7F_YJ-73" target="MvAAhoDSJqZ7KYV7F_YJ-70" edge="1">
          <mxGeometry x="-0.069" y="-3" width="160" relative="1" as="geometry">
            <mxPoint x="515" y="1427" as="sourcePoint" />
            <mxPoint x="510" y="1300" as="targetPoint" />
            <mxPoint x="-1" as="offset" />
          </mxGeometry>
        </mxCell>
        <mxCell id="MvAAhoDSJqZ7KYV7F_YJ-104" value="&lt;font style=&quot;font-size: 14px;&quot;&gt;&amp;lt;&amp;lt;include&amp;gt;&amp;gt;&lt;/font&gt;" style="endArrow=open;endSize=12;dashed=1;html=1;rounded=0;exitX=0.5;exitY=0;exitDx=0;exitDy=0;entryX=0.5;entryY=1;entryDx=0;entryDy=0;" parent="1" source="MvAAhoDSJqZ7KYV7F_YJ-42" target="MvAAhoDSJqZ7KYV7F_YJ-40" edge="1">
          <mxGeometry width="160" relative="1" as="geometry">
            <mxPoint x="1010" y="525" as="sourcePoint" />
            <mxPoint x="1010" y="590" as="targetPoint" />
          </mxGeometry>
        </mxCell>
        <mxCell id="MvAAhoDSJqZ7KYV7F_YJ-107" value="&lt;font style=&quot;font-size: 14px;&quot;&gt;&amp;lt;&amp;lt;include&amp;gt;&amp;gt;&lt;/font&gt;" style="endArrow=open;endSize=12;dashed=1;html=1;rounded=0;entryX=0.974;entryY=0.342;entryDx=0;entryDy=0;entryPerimeter=0;" parent="1" source="MvAAhoDSJqZ7KYV7F_YJ-40" target="MvAAhoDSJqZ7KYV7F_YJ-33" edge="1">
          <mxGeometry width="160" relative="1" as="geometry">
            <mxPoint x="290" y="507" as="sourcePoint" />
            <mxPoint x="609" y="448" as="targetPoint" />
          </mxGeometry>
        </mxCell>
        <mxCell id="xyK4rECtv9PmCSmrXyyv-2" value="&lt;span style=&quot;font-size: 14px;&quot;&gt;Thêm sản phẩm vào giỏ hàng.&lt;br&gt;&lt;/span&gt;" style="ellipse;whiteSpace=wrap;html=1;" parent="1" vertex="1">
          <mxGeometry x="295" y="1260" width="260" height="90" as="geometry" />
        </mxCell>
        <mxCell id="xyK4rECtv9PmCSmrXyyv-3" value="" style="endArrow=none;html=1;rounded=0;entryX=0.009;entryY=0.345;entryDx=0;entryDy=0;entryPerimeter=0;" parent="1" source="MvAAhoDSJqZ7KYV7F_YJ-3" target="xyK4rECtv9PmCSmrXyyv-2" edge="1">
          <mxGeometry width="50" height="50" relative="1" as="geometry">
            <mxPoint x="10" y="941" as="sourcePoint" />
            <mxPoint x="357" y="1390" as="targetPoint" />
          </mxGeometry>
        </mxCell>
        <mxCell id="xyK4rECtv9PmCSmrXyyv-10" style="edgeStyle=orthogonalEdgeStyle;rounded=0;orthogonalLoop=1;jettySize=auto;html=1;exitX=0.5;exitY=1;exitDx=0;exitDy=0;" parent="1" edge="1">
          <mxGeometry relative="1" as="geometry">
            <mxPoint x="550" y="1140" as="sourcePoint" />
            <mxPoint x="550" y="1140" as="targetPoint" />
          </mxGeometry>
        </mxCell>
        <mxCell id="xyK4rECtv9PmCSmrXyyv-11" value="&lt;span style=&quot;font-size: 14px;&quot;&gt;Nhập mật khẩu xác nhận&lt;/span&gt;" style="ellipse;whiteSpace=wrap;html=1;" parent="1" vertex="1">
          <mxGeometry x="1040" y="695" width="180" height="75" as="geometry" />
        </mxCell>
        <mxCell id="xyK4rECtv9PmCSmrXyyv-12" value="&lt;font style=&quot;font-size: 14px;&quot;&gt;&amp;lt;&amp;lt;include&amp;gt;&amp;gt;&lt;/font&gt;" style="endArrow=open;endSize=12;dashed=1;html=1;rounded=0;entryX=1;entryY=0.5;entryDx=0;entryDy=0;" parent="1" source="xyK4rECtv9PmCSmrXyyv-11" target="MvAAhoDSJqZ7KYV7F_YJ-50" edge="1">
          <mxGeometry width="160" relative="1" as="geometry">
            <mxPoint x="990" y="745" as="sourcePoint" />
            <mxPoint x="760" y="835" as="targetPoint" />
          </mxGeometry>
        </mxCell>
      </root>
    </mxGraphModel>
  </diagram>
</mxfile>
